<?xml version="1.0" standalone="no"?>
<!DOCTYPE svg PUBLIC "-//W3C//DTD SVG 20010904//EN"
 "http://www.w3.org/TR/2001/REC-SVG-20010904/DTD/svg10.dtd">
<svg version="1.0" xmlns="http://www.w3.org/2000/svg"
 width="640.000000pt" height="1280.000000pt" viewBox="0 0 640.000000 1280.000000"
 preserveAspectRatio="xMidYMid meet">
<metadata>
Created by potrace 1.15, written by Peter Selinger 2001-2017
</metadata>
<g transform="translate(0.000000,1280.000000) scale(0.100000,-0.100000)"
fill="#000000" stroke="none">
<path d="M3616 12775 c-80 -34 -241 -143 -324 -221 -215 -198 -398 -515 -525
-909 -145 -445 -213 -1044 -177 -1540 29 -393 106 -863 191 -1173 l20 -73 -72
-77 c-40 -42 -191 -198 -335 -347 -385 -397 -530 -563 -746 -855 -247 -335
-381 -561 -517 -878 -230 -535 -298 -1026 -211 -1526 103 -589 374 -1110 792
-1526 334 -333 771 -576 1209 -674 196 -43 279 -51 539 -50 206 0 266 4 374
22 71 12 130 21 131 20 4 -5 195 -821 219 -938 49 -230 60 -334 60 -550 0
-236 -15 -345 -70 -499 -40 -113 -85 -182 -175 -271 -188 -187 -471 -302 -744
-301 -162 0 -273 28 -378 93 l-38 24 77 18 c242 57 435 236 520 481 26 74 28
92 29 235 0 171 -10 224 -66 353 -158 361 -544 556 -894 452 -317 -93 -547
-383 -621 -780 -44 -237 36 -547 194 -755 390 -513 1236 -684 1854 -374 284
143 481 339 609 608 138 290 163 617 83 1076 -24 138 -118 595 -164 800 -28
121 -99 474 -97 476 1 1 44 20 96 43 133 58 286 152 407 249 184 147 318 316
438 552 136 268 194 499 203 810 8 265 -13 433 -84 685 -176 621 -630 1090
-1192 1230 -177 44 -305 51 -570 32 -24 -2 -25 3 -88 308 -35 171 -86 417
-113 549 l-50 238 111 117 c567 593 920 1362 1035 2256 23 176 26 708 6 880
-68 567 -227 1026 -497 1435 -88 133 -188 246 -244 275 -57 29 -137 29 -205 0z
m351 -1263 c45 -23 84 -68 103 -117 24 -61 50 -240 50 -342 0 -453 -268 -1073
-692 -1598 -110 -137 -281 -311 -296 -301 -27 16 -87 358 -99 556 -15 266 59
708 179 1065 58 173 175 425 238 511 92 125 212 219 313 245 54 14 158 4 204
-19z m-828 -4394 c41 -211 80 -411 87 -446 l12 -63 -77 -39 c-296 -149 -570
-430 -732 -751 -310 -617 -226 -1254 226 -1704 154 -154 324 -258 538 -329
l108 -35 53 19 c75 28 101 60 100 119 -1 78 -25 105 -140 162 -193 94 -290
190 -384 384 -80 163 -105 267 -97 400 7 113 26 191 67 282 83 182 273 381
464 484 l75 40 6 -23 c3 -13 73 -365 156 -783 82 -418 181 -915 219 -1105 37
-190 65 -348 62 -352 -9 -9 -175 -42 -317 -63 -435 -65 -967 80 -1330 363 -90
69 -239 216 -307 302 -263 331 -400 791 -359 1199 47 463 202 854 501 1266
180 247 419 523 636 735 131 127 344 320 353 320 3 0 40 -172 80 -382z m889
-1459 c414 -109 717 -457 806 -928 19 -97 20 -165 6 -299 -36 -335 -136 -569
-322 -748 -64 -62 -217 -174 -238 -174 -4 0 -19 57 -33 128 -14 70 -57 282
-96 472 -160 789 -291 1430 -305 1500 -9 41 -16 77 -16 79 0 8 124 -11 198
-30z"/>
</g>
</svg>
